<svg width="192" height="192" viewBox="0 0 192 192" fill="none" xmlns="http://www.w3.org/2000/svg">
  <defs>
    <linearGradient id="boxBody" x1="24" y1="72" x2="168" y2="176" gradientUnits="userSpaceOnUse">
      <stop stop-color="#FBBF24"/>
      <stop offset="0.55" stop-color="#FB7185"/>
      <stop offset="1" stop-color="#A855F7"/>
    </linearGradient>
    <linearGradient id="boxLid" x1="24" y1="56" x2="168" y2="112" gradientUnits="userSpaceOnUse">
      <stop stop-color="#FDE68A"/>
      <stop offset="0.55" stop-color="#FB7185"/>
      <stop offset="1" stop-color="#A855F7"/>
    </linearGradient>
    <linearGradient id="ribbon" x1="0" y1="0" x2="0" y2="192" gradientUnits="userSpaceOnUse">
      <stop stop-color="#FFFFFF" stop-opacity="0.42"/>
      <stop offset="1" stop-color="#FFFFFF" stop-opacity="0.10"/>
    </linearGradient>
    <radialGradient id="shine" cx="0" cy="0" r="1" gradientUnits="userSpaceOnUse" gradientTransform="translate(64 86) rotate(45) scale(120 120)">
      <stop stop-color="#FFFFFF" stop-opacity="0.35"/>
      <stop offset="0.55" stop-color="#FFFFFF" stop-opacity="0.10"/>
      <stop offset="1" stop-color="#FFFFFF" stop-opacity="0"/>
    </radialGradient>
    <filter id="shadow" x="0" y="0" width="192" height="192" filterUnits="userSpaceOnUse" color-interpolation-filters="sRGB">
      <feDropShadow dx="0" dy="18" stdDeviation="14" flood-color="#000000" flood-opacity="0.35"/>
    </filter>
  </defs>

  <g filter="url(#shadow)">
    <rect x="28" y="78" width="136" height="92" rx="18" fill="url(#boxBody)"/>
    <rect x="28" y="66" width="136" height="56" rx="18" fill="url(#boxLid)"/>

    <rect x="90" y="66" width="12" height="104" rx="6" fill="url(#ribbon)"/>
    <rect x="28" y="110" width="136" height="12" rx="6" fill="url(#ribbon)"/>

    <path d="M96 50c-18 0-31 9.5-31 20.5 0 9.2 9.4 16 21.2 16 7.6 0 13.6-2.3 17.8-6.8 4.2 4.5 10.2 6.8 17.8 6.8 11.8 0 21.2-6.8 21.2-16C127 59.5 114 50 96 50Z" fill="#FFFFFF" fill-opacity="0.20"/>
    <path d="M85.4 69.2c-10.7-3.5-17.4-9.3-17.4-15.8 0-6.9 7.4-12.6 18.3-15.6 0 0-8.2 8.7-7.1 16.7 1.1 8 6.2 14.7 6.2 14.7Z" fill="#FFFFFF" fill-opacity="0.16"/>
    <path d="M106.6 69.2c10.7-3.5 17.4-9.3 17.4-15.8 0-6.9-7.4-12.6-18.3-15.6 0 0 8.2 8.7 7.1 16.7-1.1 8-6.2 14.7-6.2 14.7Z" fill="#FFFFFF" fill-opacity="0.16"/>

    <path d="M36 96c22-22 34 6 56-16s34 6 64-10" stroke="url(#shine)" stroke-width="10" stroke-linecap="round" stroke-opacity="0.55"/>
    <path d="M40 146c22-16 34 6 56-10s34 6 64-8" stroke="url(#shine)" stroke-width="10" stroke-linecap="round" stroke-opacity="0.35"/>
  </g>
</svg>
